# xmcd
#
# Track frame offsets: 
#        150
#        17687
#        37242
#        53592
#        70220
#        91700
#        110500
#        126395
#        147160
#        166095
#        181472
#        198442
#        212662
#        233970
#        248365
#        264855
#        280780
#        302137
#        320695
#
# Disc length: 4581 seconds
#
# Revision: 0
# Processed by: cddbd v1.5.1PL0 Copyright (c) Steve Scherf et al.
# Submitted via: ExactAudioCopy v0.95a5
#
DISCID=0911e313
DTITLE=ELO - ELO - Light Years [CD1]
DYEAR=1997
DGENRE=Electronic
TTITLE0=Turn To Stone
TTITLE1=Evil Woman
TTITLE2=Livin' Thing
TTITLE3=Twilight
TTITLE4=Telephone Line
TTITLE5=Four Little Diamonds
TTITLE6=Xanadu 1980
TTITLE7=Last Train To London
TTITLE8=Strange Magic
TTITLE9=Ma Ma Ma Belle
TTITLE10=Confusion
TTITLE11=Rock'n'Roll Is King
TTITLE12=The Way Life's Meant To Be
TTITLE13=Don't Get It Out Of My Head
TTITLE14=Secret Messages
TTITLE15=Calling America
TTITLE16=Don't Walk Away
TTITLE17=Don't Bring Me Down - 1979
TTITLE18=Mr. Blue Sky
EXTD=Electric Light Orchestra - Light Years: The Very Best of Electric
EXTD=Light Orchestra - [CD1]
EXTT0=
EXTT1=
EXTT2=
EXTT3=
EXTT4=
EXTT5=
EXTT6=
EXTT7=
EXTT8=
EXTT9=
EXTT10=
EXTT11=
EXTT12=
EXTT13=
EXTT14=
EXTT15=
EXTT16=
EXTT17=
EXTT18=
PLAYORDER=
